<svg width="24" height="22" viewBox="0 0 24 22" fill="none" xmlns="http://www.w3.org/2000/svg">
<path d="M12 9.80006C10.913 7.68606 7.954 3.74706 5.202 1.80506C2.566 -0.0559413 1.561 0.266059 0.902 0.565059C0.139 0.908059 0 2.08006 0 2.76806C0 3.45806 0.378 8.41806 0.624 9.24706C1.439 11.9831 4.337 12.9071 7.007 12.6111C7.143 12.5911 7.282 12.5721 7.422 12.5551C7.284 12.5771 7.146 12.5951 7.007 12.6111C3.095 13.1911 -0.38 14.6161 4.177 19.6891C9.19 24.8791 11.047 18.5761 12 15.3811C12.953 18.5761 14.05 24.6521 19.733 19.6891C24 15.3811 20.905 13.1911 16.993 12.6111C16.8542 12.5957 16.7159 12.577 16.578 12.5551C16.718 12.5721 16.857 12.5911 16.993 12.6111C19.663 12.9081 22.561 11.9831 23.376 9.24706C23.622 8.41906 24 3.45706 24 2.76906C24 2.07906 23.861 0.908058 23.098 0.563058C22.439 0.265058 21.434 -0.0569415 18.798 1.80306C16.046 3.74806 13.087 7.68706 12 9.80006Z" fill="white"/>
</svg>
