<svg width="184" height="184" viewBox="0 0 184 184" fill="none" xmlns="http://www.w3.org/2000/svg">
<rect width="184" height="184" rx="92" fill="#F8CC04"/>
<path d="M65.42 122.55C59.4067 122.55 54.1267 121.303 49.58 118.81C45.0333 116.243 41.4767 112.76 38.91 108.36C36.3433 103.887 35.06 98.79 35.06 93.07C35.06 87.35 36.27 82.29 38.69 77.89C41.1833 73.49 44.5567 70.0433 48.81 67.55C53.1367 64.9833 57.9767 63.7 63.33 63.7C68.7567 63.7 73.56 64.9467 77.74 67.44C81.9933 69.86 85.33 73.3067 87.75 77.78C90.17 82.18 91.38 87.2767 91.38 93.07C91.38 93.4367 91.3433 93.84 91.27 94.28C91.27 94.6467 91.27 95.05 91.27 95.49H41V89.66H87.09L84.01 91.97C84.01 87.79 83.0933 84.0867 81.26 80.86C79.5 77.56 77.08 74.9933 74 73.16C70.92 71.3267 67.3633 70.41 63.33 70.41C59.37 70.41 55.8133 71.3267 52.66 73.16C49.5067 74.9933 47.05 77.56 45.29 80.86C43.53 84.16 42.65 87.9367 42.65 92.19V93.4C42.65 97.8 43.6033 101.687 45.51 105.06C47.49 108.36 50.2033 110.963 53.65 112.87C57.17 114.703 61.1667 115.62 65.64 115.62C69.16 115.62 72.4233 114.997 75.43 113.75C78.51 112.503 81.15 110.597 83.35 108.03L87.75 113.09C85.1833 116.17 81.9567 118.517 78.07 120.13C74.2567 121.743 70.04 122.55 65.42 122.55ZM96.9728 122L121.393 90.32L121.283 94.17L98.0728 64.25H106.873L125.903 89L122.603 88.89L141.633 64.25H150.213L126.783 94.5L126.893 90.32L151.533 122H142.623L122.493 95.6L125.573 96.04L105.773 122H96.9728Z" fill="black"/>
</svg>
