<svg width="144" height="144" viewBox="0 0 144 144" fill="none" xmlns="http://www.w3.org/2000/svg">
<path d="M71.8998 5.40002C35.0998 5.40002 5.2998 35.2 5.2998 72C5.2998 100.2 22.7998 124.3 47.5998 134C46.9998 128.7 46.4998 120.7 47.7998 114.9C48.9998 109.7 55.5998 81.8 55.5998 81.8C55.5998 81.8 53.5998 77.8 53.5998 71.9C53.5998 62.6 58.9998 55.7 65.5998 55.7C71.2998 55.7 73.9998 60 73.9998 65.1C73.9998 70.8 70.3998 79.4 68.4998 87.3C66.8998 93.9 71.7998 99.3 78.3998 99.3C90.1998 99.3 99.2998 86.8 99.2998 68.8C99.2998 52.9 87.7998 41.7 71.4998 41.7C52.5998 41.7 41.3998 55.9 41.3998 70.6C41.3998 76.3 43.5998 82.5 46.3998 85.8C46.8998 86.5 46.9998 87 46.8998 87.7C46.3998 89.8 45.2998 94.3 45.0998 95.2C44.7998 96.4 44.0998 96.7 42.8998 96.1C34.5998 92.2 29.3998 80.1 29.3998 70.3C29.3998 49.3 44.6998 30 73.3998 30C96.4998 30 114.4 46.5 114.4 68.4C114.4 91.3 99.8998 109.8 79.8998 109.8C73.1998 109.8 66.7998 106.3 64.5998 102.2C64.5998 102.2 61.2998 114.9 60.4998 118C58.9998 123.8 54.8998 131 52.1998 135.5C58.3998 137.4 64.9998 138.5 71.8998 138.5C108.7 138.5 138.5 108.7 138.5 71.9C138.5 35.2 108.7 5.40002 71.8998 5.40002Z" fill="white"/>
</svg>
