<svg width="800" height="800" viewBox="0 0 800 800" fill="none" xmlns="http://www.w3.org/2000/svg">
<g clip-path="url(#clip0_187_20)">
<path d="M725.969 607.79L451.615 25.161C444.67 10.5532 430.276 0.928758 414.123 0.0928633C397.932 -0.99191 382.483 7.01747 374.038 20.8733L76.4708 502.831C67.233 517.688 67.4274 536.549 76.9694 551.213L222.452 776.507C233.756 793.875 255.138 801.738 275.002 795.831L697.191 670.949C710.053 667.189 720.652 658.037 726.248 645.861C731.767 633.744 731.672 619.811 725.988 607.77L725.969 607.79ZM664.545 632.779L306.292 738.715C295.363 741.966 284.873 732.493 287.147 721.464L415.14 108.602C417.533 97.1346 433.367 95.3198 438.373 105.929L675.314 609.087C677.434 613.624 677.459 618.863 675.384 623.421C673.308 627.979 669.339 631.399 664.525 632.779H664.545Z" fill="white"/>
</g>
<defs>
<clipPath id="clip0_187_20">
<rect width="800" height="800" fill="white"/>
</clipPath>
</defs>
</svg>
